<svg xmlns="http://www.w3.org/2000/svg" width="510.236" height="510.236" viewBox="0 0 510.236 510.236"><path fill="#FFF" d="M74.59 58.866c2.79-.31 5.58-.63 8.38-.63H226c5.19.18 10.45-.43 15.61.34 11 11.99 22.93 23.1 34.38 34.67 48.47 48.53 96.9 97.09 145.31 145.68 5.32 5.24 10.28 10.94 16.29 15.4-23.84 23.65-47.27 47.74-71.41 71.09-26.92 27.09-53.95 54.06-80.85 81.16-14.2 14.76-29.13 28.78-43.16 43.69-.98 1.24-2.72.85-4.07.99-51.71-.05-103.42-.01-155.13-.02-2.8 0-5.58-.32-8.35-.63 10.33-9.24 19.74-19.44 29.61-29.16 51.79-51.87 103.53-103.8 155.3-155.68 3.63-3.56 7.11-7.28 10.92-10.65-3.16-3.93-6.86-7.36-10.43-10.9-59.43-59.58-118.86-119.18-178.29-178.75-2.37-2.21-4.85-4.31-7.14-6.6z"/></svg>