<?xml version="1.0" encoding="utf-8"?>
<!-- Generator: Adobe Illustrator 17.0.0, SVG Export Plug-In . SVG Version: 6.00 Build 0)  -->
<!DOCTYPE svg PUBLIC "-//W3C//DTD SVG 1.1//EN" "http://www.w3.org/Graphics/SVG/1.1/DTD/svg11.dtd">
<svg version="1.1" id="Layer_1" xmlns="http://www.w3.org/2000/svg" xmlns:xlink="http://www.w3.org/1999/xlink" x="0px" y="0px"
	 width="420.988px" height="124.691px" viewBox="0 0 420.988 124.691" enable-background="new 0 0 420.988 124.691"
	 xml:space="preserve">
<rect x="-34.1" y="-29.321" display="none" fill="#F26722" width="478" height="191"/>
<path fill="#FFFFFF" d="M208.681,42.925c5.105-1.021,11.457-1.702,18.377-1.702c7.939,0,13.726,1.248,18.376,4.539
	c4.425,2.723,7.373,7.258,7.373,13.045c0,9.755-7.487,16.335-15.88,18.604v0.339c7.146,2.158,12.251,8.057,12.251,16.791
	c0,8.167-4.311,14.179-9.87,18.036c-6.238,4.423-15.427,6.239-26.997,6.239c-7.715,0-14.067-0.567-17.697-1.247L208.681,42.925z
	 M209.361,108.038c2.043,0.228,4.425,0.34,6.919,0.34c9.87,0,18.945-3.971,18.945-14.293c0-8.167-6.919-11.23-14.975-11.23h-6.238
	L209.361,108.038z M216.054,73.099h6.125c9.869,0,17.017-4.649,17.017-12.477c0-6.354-4.879-9.075-12.138-9.075
	c-3.063,0-5.674,0.227-7.033,0.566L216.054,73.099z M289.556,118.248c0.114-3.29,0.454-7.713,1.021-12.365h-0.34
	c-5.446,10.097-12.706,13.612-19.739,13.612c-9.869,0-16.334-7.713-16.334-18.83c0-18.83,13.158-38.909,38.908-38.909
	c6.014,0,12.479,1.134,16.676,2.495l-5.672,28.813c-1.588,8.167-2.495,18.604-2.268,25.184H289.556z M294.887,72.533
	c-1.248-0.342-3.061-0.566-5.331-0.566c-12.252,0-21.666,13.725-21.666,26.316c0,5.785,2.153,10.551,7.939,10.551
	c6.126,0,13.613-7.713,16.222-21.78L294.887,72.533z M350.58,116.205c-3.289,1.589-8.849,3.177-15.881,3.177
	c-13.841,0-22.348-8.847-22.348-22.12c0-19.284,14.633-35.506,35.052-35.506c4.878,0,9.188,1.134,11.344,2.156l-3.402,10.21
	c-2.042-0.907-4.651-1.701-8.395-1.701c-12.704,0-20.759,11.798-20.759,23.366c0,8.281,4.765,12.933,12.138,12.933
	c5.105,0,8.963-1.36,11.685-2.608L350.58,116.205z M356.474,118.248l15.312-80.542h13.159l-9.415,49.233h0.227
	c1.701-2.042,3.517-4.197,5.104-5.899l16.449-18.036h16.335l-23.822,22.802l15.883,32.442h-14.635l-11.344-25.184l-6.466,6.013
	l-3.631,19.171H356.474z"/>
<path fill="#FFFFFF" d="M74.586,41.791H58.023L34.315,68.562c-2.269,2.724-4.764,5.446-7.26,8.734h-0.34l6.692-35.505H20.361
	l-14.52,76.457h13.045l5.218-27.112l8.621-8.054l14.519,35.166h14.407L43.049,74.802L74.586,41.791z M65.617,118.248h13.272
	l10.435-55.244H76.167L65.617,118.248z M86.15,40.089c-4.311,0-7.941,3.291-7.941,7.941c0,4.196,2.723,7.032,6.692,7.032h0.114
	c4.424,0,8.054-3.062,8.168-7.941C93.182,42.925,90.346,40.089,86.15,40.089z M164.299,37.706h-13.158l-11.17,58.741
	c5.071-3.986,10.417-9.071,16.003-15.204L164.299,37.706z M161.766,99.025l8.659,19.224h14.633l-13.984-28.569
	C168.848,92.102,165.661,95.411,161.766,99.025z M135.827,118.248h13.159l1.902-10.05c-4.615,3.503-9.676,6.815-14.952,9.476
	L135.827,118.248z M174.904,4.543c-33.723,3.825-71.017,27.508-71.017,27.508c123.965-53.739,81.326,18.924,58.342,46.741
	c-0.648,0.722-1.313,1.467-2.013,2.248c-31.82,35.564-47.364,27.583-51.377,24.309c-2.107-2.198-3.295-5.428-3.295-9.562
	c0-11.568,8.054-23.366,20.759-23.366c3.743,0,6.353,0.794,8.395,1.701l3.403-10.21c-2.155-1.021-6.466-2.156-11.344-2.156
	c-20.419,0-35.053,16.222-35.053,35.506c0,13.273,9.909,22.433,23.749,22.433c0.27,0,0.508-0.02,0.769-0.025
	c0.186,0.039,0.374,0.076,0.6,0.064c24.829-1.219,51.388-30.334,56.457-36.152c8.862-9.434,19.816-22.475,29.194-38.903
	C220.103,13.796,193.096,2.481,174.904,4.543z"/>
</svg>
