<?xml version="1.0" encoding="utf-8"?>
<!-- Generator: Adobe Illustrator 17.0.0, SVG Export Plug-In . SVG Version: 6.00 Build 0)  -->
<!DOCTYPE svg PUBLIC "-//W3C//DTD SVG 1.1//EN" "http://www.w3.org/Graphics/SVG/1.1/DTD/svg11.dtd">
<svg version="1.1" id="Layer_1" xmlns="http://www.w3.org/2000/svg" xmlns:xlink="http://www.w3.org/1999/xlink" x="0px" y="0px"
	 width="156.458px" height="156.468px" viewBox="2.244 2.234 156.458 156.468" enable-background="new 2.244 2.234 156.458 156.468"
	 xml:space="preserve" style="fill:#f07818">
<path d="M80.468,2.234c43.207,0,78.234,35.027,78.234,78.234s-35.027,78.234-78.234,78.234S2.234,123.675,2.234,80.468
	S37.261,2.234,80.468,2.234z M84.139,117.383c3.53,0.661,9.705,1.212,17.206,1.212c11.248,0,20.182-1.766,26.247-6.066
	c5.405-3.75,9.596-9.595,9.596-17.535c0-8.492-4.963-14.227-11.911-16.325v-0.33c8.16-2.206,15.439-8.603,15.439-18.087
	c0-5.627-2.866-10.036-7.168-12.683c-4.521-3.2-10.147-4.413-17.866-4.413c-6.728,0-12.904,0.663-17.867,1.655L84.139,117.383z
	 M102.998,83.633h6.066c7.832,0,14.559,2.978,14.559,10.918c0,10.035-8.823,13.896-18.419,13.896c-2.425,0-4.741-0.109-6.727-0.331
	L102.998,83.633z M108.845,53.744c1.322-0.329,3.86-0.55,6.838-0.55c7.057,0,11.801,2.645,11.801,8.823
	c0,7.61-6.95,12.13-16.545,12.13h-5.955L108.845,53.744z M92.889,43.301H76.787L53.736,69.329c-2.206,2.648-4.632,5.295-7.058,8.491
	h-0.331l6.506-34.519H40.171l-14.117,74.334h12.683l5.073-26.359l8.382-7.83l14.116,34.19h14.007L62.23,75.396L92.889,43.301z"/>
</svg>
