<svg xmlns="http://www.w3.org/2000/svg" width="512" height="512" viewBox="0 0 512 512"><path fill="#BBB" d="M470.704 407.906l-2.69-2.69h.005L360.504 297.69c14.938-25.733 23.616-55.565 23.82-87.45.626-97.616-77.99-177.244-175.6-177.858l-1.167-.002c-97.06.004-176.067 78.39-176.692 175.598-.618 97.61 78 177.236 175.597 177.86.39 0 .766.003 1.155.003 32.442 0 62.846-8.79 88.998-24.075L404.036 469.2l.01-.01 2.685 2.686c8.126 8.124 21.294 8.117 29.415 0l34.56-34.554c8.115-8.117 8.12-21.293 0-29.416zM206.748 340.77c-72.59-.465-131.27-59.906-130.812-132.5C76.4 136.14 135.45 77.456 207.56 77.452l.88.002c35.168.22 68.145 14.124 92.852 39.148 24.705 25.025 38.19 58.178 37.962 93.352-.222 35.015-14.027 67.893-38.867 92.564-24.834 24.67-57.78 38.25-92.767 38.25h-.872z"/></svg>